<?xml version="1.0" encoding="UTF-8"?>
<svg id="Livello_2" data-name="Livello 2" xmlns="http://www.w3.org/2000/svg" viewBox="0 0 5001.96 835.21">
  <defs>
    <style>
      .cls-1 {
        fill: #e62f37;
      }

      .cls-2 {
        fill: #1d1d1b;
      }

      .cls-3 {
        fill: #009739;
      }
    </style>
  </defs>
  <g id="Livello_1-2" data-name="Livello 1">
    <g>
      <path class="cls-1" d="M1288.62,514.03c61.67-3.76,175.52-221.56,220.15-204.18,40.91,15.93-121.71,157.77-84.03,202.49,92.85,110.18,660.92-120.7,819.01-28.35,33.46,19.55-52.85,88.5-29.36,105.45,34.32,24.78,180.25,17.82,222.52-.93,52.61-23.33-21.11-98.73,52.61-121.24,142.26-43.45,261.73,15.97,382.18,12.22,226.15-7.04,242.05-109.89,277.61-108.35,57.69,2.5-88.6,147.37,0,156.44,64.74,6.63,272.91-166.24,332.76-148.72,36.53,10.69-15.5,73.64,56.02,94.8,172.21,50.95,453.52-48.68,513.36-30.55,95.49,28.94-59.81,107.06,23.47,123.46,80.54,15.85,345.92-109.02,404.76-112.88,78.87-5.18,375.04,109.56,463.19,116.52,16.76,1.32,35.16-4.52,46.5-13.39,12.04-9.41,15.92-22.95,9.57-33.84-63.77-109.41-360.8-435.38-459.22-421.86-81.76,11.23-245.31,107.66-383.87,184.58-74.34,41.27-302.38,104.34-338.66,74.35-73.42-60.67,344.13-123.47,339.96-209.68-5.5-113.84-643.66-174.09-646.44-87.15-2.79,87.15,330.57,61,348.22,121.2,10.05,34.27-85.99,115.9-218.7,108.87-117.22-6.21-185.29-261.55-273.33-274.04-54.88-7.78-63.78,111.69-145.32,106.13-126.24-8.62-172.32-160.36-369.97-117.89-129.51,27.83-185.54,142.72-205.22,205.8,0,0-24.86,183.34-103.62,181.7-108.76-2.27-17.6-207.5-17.52-278.93.03-27.51-28.07-64.87-64.67-44.67-124.74,68.84-274.86,235.09-396.69,306.14-47.66,27.8-109.23,36.32-172.88,33.96-55.38-2.05-212.41-18.37-218.08-32.86-16.62-42.47,356.84-13.89,374.15-48.42,29.46-58.76-253.4-27.49-253.89-68.3-.43-35.96,344.77,5.58,353.09-43.7,6.8-40.25-385.49-161.83-521.11-155.16-98,4.82-225.87,158.85-313.14,176.3-75.09,15.02-217.62-278.39-277.69-168.85-16.09,29.34,72.78,157.96,56.2,168.85-37.16,24.4-114.73-150.17-319.4-135.08-136.78,10.08-134.27,124.91-179.72,123.63-26.07-.73-13.52-115.27-59.1-117.74-60.49-3.27-127.67,106.4-182.33,101.81-52.37-4.4-82.09-200.8-208.04-167.73C33.2,72.79-51.18,519.13,36.42,588.51c67.86,53.74,149.02-209.42,260.06-232.71,31.49-6.61,45.31,52.21,73.64,55.9,33.8,4.41,60.22-80.56,82.19-67.73,53.17,31.05,81.68,226.36,165.02,216.52,48.1-5.68-.02-130.99,21.99-140.27,19.94-8.41,113.34,122.18,265.22,118.7,156.42-3.58,198.54-124.32,232.54-129.61,33.67-5.24,74.75,109.4,151.55,104.71ZM4485.33,340.11c-21.81,9.43-61.97,2.59-65.18-2.27-6.27-9.48,9.73-38.63,31.51-40.8,17.28-1.72,48.27,36.76,33.67,43.07ZM3283.86,270.61c12.16-10.77,62.07,12.09,74.1,22.93,10.43,9.39-61.72,30.62-74.1,23.97-13.82-7.43-10.63-37.47,0-46.89ZM2849.71,177.52c101.11-61.95,314.77-4.48,299.6,39.41-24.37,70.51-252.91,33.1-239.38,78.42,5.68,19.01,142-5.72,153.23,14.19,11.65,20.64-108.97,75.96-213.45,36.88-85.05-31.82-48.75-139.02,0-168.89ZM2284.12,320.9c12.81-.12,27.02,55.28,11.89,61.26-14.23,5.63-72.66,3.08-68.51-6.39,7.12-16.27,45.37-54.77,56.62-54.87ZM797.48,239.5c29.96-4.58,66,39.39,45.24,58.5-11.98,11.03-64.49,13.91-76.12-4.99-11.05-17.97,6.72-49.82,30.88-53.51Z"/>
      <path class="cls-3" d="M1288.62,743.81c61.67-3.76,175.52-221.56,220.15-204.18,40.91,15.93-121.71,157.77-84.03,202.49,92.85,110.18,660.92-120.7,819.01-28.35,33.46,19.55-52.85,88.5-29.36,105.45,34.32,24.78,180.25,17.82,222.52-.93,52.61-23.33-21.11-98.73,52.61-121.24,142.26-43.45,261.73,15.97,382.18,12.22,226.15-7.04,242.05-109.89,277.61-108.35,57.69,2.5-88.6,147.37,0,156.44,64.74,6.63,272.91-166.24,332.76-148.72,36.53,10.69-15.5,73.64,56.02,94.8,172.21,50.95,453.52-48.68,513.36-30.55,95.49,28.94-59.81,107.06,23.47,123.46,80.54,15.85,345.92-109.02,404.76-112.88,78.87-5.18,375.04,109.56,463.19,116.52,16.76,1.32,35.16-4.52,46.5-13.39,12.04-9.41,15.92-22.95,9.57-33.84-63.77-109.41-360.8-435.38-459.22-421.86-81.76,11.23-245.31,107.66-383.87,184.58-74.34,41.27-302.38,104.34-338.66,74.35-73.42-60.67,344.13-123.47,339.96-209.68-5.5-113.84-643.66-174.09-646.44-87.15-2.79,87.15,330.57,61,348.22,121.2,10.05,34.27-85.99,115.9-218.7,108.87-117.22-6.21-185.29-261.55-273.33-274.04-54.88-7.78-63.78,111.69-145.32,106.13-126.24-8.62-172.32-160.36-369.97-117.89-129.51,27.83-185.54,142.72-205.22,205.8,0,0-24.86,183.34-103.62,181.7-108.76-2.27-17.6-207.5-17.52-278.93.03-27.51-28.07-64.87-64.67-44.67-124.74,68.84-274.86,235.09-396.69,306.14-47.66,27.8-109.23,36.32-172.88,33.96-55.38-2.05-212.41-18.37-218.08-32.86-16.62-42.47,356.84-13.89,374.15-48.42,29.46-58.76-253.4-27.49-253.89-68.3-.43-35.96,344.77,5.58,353.09-43.7,6.8-40.25-385.49-161.83-521.11-155.16-98,4.82-225.87,158.85-313.14,176.3-75.09,15.02-217.62-278.39-277.69-168.85-16.09,29.34,72.78,157.96,56.2,168.85-37.16,24.4-114.73-150.17-319.4-135.08-136.78,10.08-134.27,124.91-179.72,123.63-26.07-.73-13.52-115.27-59.1-117.74-60.49-3.27-127.67,106.4-182.33,101.81-52.37-4.4-82.09-200.8-208.04-167.73-108.77,28.56-193.14,474.89-105.54,544.27,67.86,53.74,149.02-209.42,260.06-232.71,31.49-6.61,45.31,52.21,73.64,55.9,33.8,4.41,60.22-80.56,82.19-67.73,53.17,31.05,81.68,226.36,165.02,216.52,48.1-5.68-.02-130.99,21.99-140.27,19.94-8.41,113.34,122.18,265.22,118.7,156.42-3.58,198.54-124.32,232.54-129.61,33.67-5.24,74.75,109.4,151.55,104.71ZM4485.33,569.9c-21.81,9.43-61.97,2.59-65.18-2.27-6.27-9.48,9.73-38.63,31.51-40.8,17.28-1.72,48.27,36.76,33.67,43.07ZM3283.86,500.39c12.16-10.77,62.07,12.09,74.1,22.93,10.43,9.39-61.72,30.62-74.1,23.97-13.82-7.43-10.63-37.47,0-46.89ZM2849.71,407.31c101.11-61.95,314.77-4.48,299.6,39.41-24.37,70.51-252.91,33.1-239.38,78.42,5.68,19.01,142-5.72,153.23,14.19,11.65,20.64-108.97,75.96-213.45,36.88-85.05-31.82-48.75-139.02,0-168.89ZM2284.12,550.68c12.81-.12,27.02,55.28,11.89,61.26-14.23,5.63-72.66,3.08-68.51-6.39,7.12-16.27,45.37-54.77,56.62-54.87ZM797.48,469.29c29.96-4.58,66,39.39,45.24,58.5-11.98,11.03-64.49,13.91-76.12-4.99-11.05-17.97,6.72-49.82,30.88-53.51Z"/>
      <g>
        <path class="cls-2" d="M2489.52,467.26c4.31-1.32,8.6-2.53,12.87-3.67,5.74-25.87,12.21-51.35,16.8-73.44-28.54-12.8-32.91-49.64-28.02-93.29-9.03-2.64-19.4-1.86-30.57,4.31-71.12,39.25-150.5,110.17-228.17,177.05,3.98,1.76,7.76,3.68,11.33,5.76,33.46,19.55-52.85,88.5-29.36,105.45,4.34,3.13,10.47,5.76,17.94,7.92,12.73-18.33,42.15-46.58,51.79-46.66,10.69-.1,22.32,38.4,17.12,54.66,52.14.9,111.23-6,135.67-16.84,52.61-23.33-21.11-98.73,52.61-121.24Z"/>
        <path class="cls-2" d="M3482.07,378.85c2.47.72,4.53,1.7,6.26,2.87-41.01-63.93-78.89-126.65-121.42-132.68-18.41-2.61-31.64,9.1-44.18,25.61,14.9,5.7,29.45,13.68,35.23,18.89,9.06,8.16-44.18,25.24-66.44,25.23-16.85,21.28-37.72,38.6-69.93,36.4-72.14-4.92-118.11-56.58-181.14-92.03-67.05,7.42-138.24,6.33-130.51,32.21,5.68,19.01,142-5.72,153.23,14.19,11.65,20.64-108.97,75.96-213.45,36.88-45.49-17.02-56.26-55.6-48.98-92.38-93.82,42.7-137.45,134.94-154.33,189.05,0,0-.52,3.79-1.63,10.25,54.46,4.71,106.46,16.45,157.81,22.54,7.82-29.02,26.33-55.82,47.12-68.56,68.43-41.93,188.38-29.15,254.09-2.91,21.01-18.95,31.8-33.85,45.51-33.26,24.71,1.07,11.99,28.26-3.65,59.71,4.01,5.33,5.44,10.7,3.65,15.87-3.57,10.32-11.53,18.32-22.45,24.61-10.93,28.42-12.17,52.7,22.45,56.25,64.74,6.63,272.91-166.24,332.76-148.72Z"/>
        <path class="cls-2" d="M3538.09,473.65c7.23,2.14,14.66,3.99,22.24,5.62-23.01-23.77-44.23-54.63-64.57-86.01,5.5,22.89-12.85,64.07,42.33,80.39Z"/>
        <path class="cls-2" d="M4539.72,330.9c-81.76,11.23-245.31,107.66-383.87,184.58-23.01,12.77-60.74,27.63-102.94,41.17,3.72,4.27,10.62,7.67,22.01,9.91,80.54,15.85,345.92-109.02,404.76-112.88,56.85-3.73,226.59,54.83,349.96,90.44-107-113.03-232.38-221.12-289.91-213.22Z"/>
        <path class="cls-2" d="M141.97,274.02c-57.06,14.98-107.4,144.93-129.73,275.11,5.8,17.55,13.78,31.13,24.18,39.37,65.18,51.62,142.64-189.16,247.06-228.87-31-51.17-71.3-104.05-141.52-85.61Z"/>
        <path class="cls-2" d="M3930.8,275.77c-43.07-7.91-88.66-14.04-133.32-18.14-39.08,22.21-93.99,39.01-157.25,35.65-25.41-1.35-48.5-14.41-69.99-34.15-36.43,6.58-59.01,17.67-59.53,33.87-2.79,87.15,330.57,61,348.22,121.2,4.3,14.66-10.83,37.99-39.93,59.34,106.87-16.6,200.74-40.04,232.45-30.44,8.62,2.61,15.17,5.63,20.07,8.97,50.1-22.24,86.89-46.02,85.64-71.91-1.15-23.73-29.79-45.12-74.42-63.35-97.55,34.6-237.76,66.2-265.55,43.23-32.72-27.04,32.08-54.51,113.61-84.27Z"/>
        <path class="cls-2" d="M1808.52,505.08c-9.59-3.34-15.24-7.65-15.31-13.4-.23-19.04,96.43-16.35,188.69-16.92,54.01-8,104.99-13.31,149.18-13.12,8.84-3.52,14.27-7.99,15.23-13.66,2.28-13.49-40.29-36.13-103-60-44.18,19.48-97.45,25.53-152.28,23.5-55.38-2.05-212.41-18.37-218.08-32.86-10.71-27.35,140.39-25.24,253.94-29.49-111.23-32.92-236.29-59.52-301.69-56.31-37.18,1.83-78.67,25.14-120.6,54.32-29.46,49.55-107.13,132.81-79.85,165.18,13.65,16.2,37.59,25.02,68.99,28.59,5.6-2.4,10.66-2.99,15.04-1.29,1.78.69,3.15,1.64,4.19,2.78,75.12,3.49,183.57-16.41,295.56-37.34Z"/>
        <path class="cls-2" d="M1137.08,409.31c33.67-5.24,74.75,109.4,151.55,104.71,23.81-1.45,55.39-34.81,87.77-74.22-22.97,14.52-44.69,25.39-64.34,29.33-75.09,15.02-217.62-278.39-277.69-168.85-13.02,23.74,42.65,112.44,55.62,151.23,20.53-22.1,34.38-40.22,47.1-42.2Z"/>
        <path class="cls-2" d="M836.56,531.49c21.14,5.13,43.82,7.98,67.98,7.43,83.02-1.9,133.85-36.81,168.35-69.94-43-19.54-124.95-147.96-301.72-134.93-136.78,10.08-134.27,124.91-179.72,123.63-26.07-.73-13.52-115.27-59.11-117.74-19.47-1.05-39.64,9.61-59.86,24.38,41.59,59.2,72.64,204.69,144.85,196.16,48.1-5.68-.02-130.99,21.99-140.27,12.76-5.38,55.63,46.18,124.65,83.09,3.23-15.54,16.84-31.47,33.51-34.01,29.96-4.58,66,39.39,45.24,58.5-1.48,1.37-3.59,2.61-6.16,3.7Z"/>
      </g>
    </g>
  </g>
</svg>