<?xml version="1.0" encoding="UTF-8"?>
<svg id="Livello_2" data-name="Livello 2" xmlns="http://www.w3.org/2000/svg" viewBox="0 0 5056.84 612.07">
  <defs>
    <style>
      .cls-1 {
        fill: #009739;
      }
    </style>
  </defs>
  <g id="Livello_1-2" data-name="Livello 1">
    <path class="cls-1" d="M1302.76,519.67c62.34-3.8,177.45-223.99,222.56-206.42,41.36,16.11-123.05,159.5-84.95,204.71,93.87,111.39,668.17-122.02,827.99-28.66,33.83,19.76-53.43,89.47-29.68,106.61,34.7,25.05,182.23,18.02,224.96-.94,53.18-23.59-21.34-99.81,53.18-122.57,143.82-43.93,264.6,16.15,386.38,12.35,228.63-7.12,244.7-111.1,280.66-109.54,58.32,2.53-89.57,148.99,0,158.15,65.45,6.7,275.9-168.06,336.41-150.35,36.93,10.81-15.67,74.44,56.64,95.84,174.1,51.51,458.5-49.22,518.99-30.88,96.54,29.26-60.47,108.24,23.73,124.81,81.42,16.03,349.72-110.22,409.2-114.12,79.73-5.23,379.15,110.76,468.27,117.8,16.94,1.34,35.55-4.57,47.02-13.53,12.17-9.51,16.09-23.21,9.68-34.22-64.47-110.61-364.75-440.16-464.26-426.48-82.66,11.36-248,108.84-388.08,186.61-75.16,41.72-305.69,105.49-342.38,75.17-74.22-61.34,347.9-124.82,343.69-211.98-5.56-115.09-650.72-176-653.53-88.11-2.82,88.11,334.2,61.67,352.04,122.53,10.16,34.65-86.94,117.18-221.1,110.07-118.51-6.28-187.32-264.42-276.33-277.04-55.48-7.87-64.48,112.92-146.91,107.29-127.63-8.71-174.21-162.12-374.03-119.18-130.93,28.13-187.58,144.29-207.47,208.06,0,0-25.13,185.35-104.75,183.69-109.95-2.3-17.79-209.77-17.72-281.99.03-27.82-28.38-65.58-65.38-45.16-126.11,69.6-277.88,237.67-401.04,309.5-48.18,28.1-110.43,36.71-174.78,34.33-55.98-2.07-214.74-18.57-220.47-33.22-16.81-42.94,360.76-14.04,378.26-48.95,29.78-59.4-256.18-27.79-256.67-69.05-.44-36.35,348.55,5.64,356.97-44.18,6.88-40.69-389.72-163.61-526.83-156.86-99.08,4.88-228.35,160.59-316.58,178.24-75.91,15.18-220.01-281.44-280.74-170.7-16.27,29.66,73.58,159.7,56.82,170.7-37.57,24.67-115.99-151.82-322.9-136.56-138.28,10.19-135.74,126.28-181.7,124.98-26.36-.74-13.67-116.54-59.75-119.03-61.15-3.31-129.07,107.57-184.33,102.93S270.86,11.29,143.52,44.72C33.56,73.59-51.74,524.83,36.82,594.96c68.6,54.33,150.65-211.72,262.91-235.27,31.84-6.68,45.8,52.78,74.45,56.52,34.17,4.46,60.88-81.45,83.1-68.47,53.75,31.39,82.57,228.85,166.83,218.9,48.63-5.74-.02-132.43,22.23-141.81,20.16-8.5,114.58,123.52,268.13,120,158.14-3.62,200.72-125.68,235.09-131.03,34.04-5.29,75.57,110.6,153.21,105.86ZM4534.55,343.84c-22.05,9.53-62.65,2.62-65.9-2.3-6.34-9.59,9.83-39.05,31.86-41.25,17.47-1.74,48.8,37.17,34.04,43.55ZM3319.89,273.58c12.29-10.89,62.75,12.23,74.91,23.18,10.54,9.5-62.4,30.96-74.91,24.23-13.97-7.51-10.75-37.89,0-47.41ZM2880.98,179.47c102.22-62.63,318.22-4.53,302.89,39.84-24.64,71.28-255.69,33.47-242,79.28,5.74,19.21,143.55-5.79,154.91,14.35,11.77,20.87-110.17,76.8-215.79,37.28-85.98-32.17-49.29-140.55,0-170.74ZM2309.18,324.42c12.95-.12,27.31,55.89,12.02,61.94-14.39,5.69-73.46,3.11-69.27-6.46,7.2-16.45,45.87-55.37,57.24-55.48ZM806.23,242.13c30.29-4.63,66.72,39.82,45.73,59.14-12.11,11.15-65.19,14.07-76.95-5.05-11.17-18.16,6.79-50.36,31.22-54.1Z"/>
  </g>
</svg>